# xmcd
#
# Track frame offsets:
#	150
#	12680
#	24827
#	39137
#	52122
#	64330
#	75282
#	88105
#	100557
#	111212
#	123342
#	135062
#	149022
#	168955
#	182607
#	209377
#	221392
#	251492
#
# Disc length: 3613 seconds
# Revision: 4
# Processed by: cddbd v1.5.2PL0 Copyright (c) Steve Scherf et al.
# Submitted via: dBpowerAMP V12.0
#
DISCID=ea0e1b12
DTITLE=Various Artist - The Chess Box;CD2of2
DYEAR=1988
DGENRE=Blues
TTITLE0=Howlin' Wolf - Spoonful
TTITLE1=Otis Rush - You Know My Love
TTITLE2=Bo Diddley - You Can't Judge A Book By It's Cover
TTITLE3=Howlin' Wolf - I Ain't Superstitious
TTITLE4=Muddy Waters - You Need Love
TTITLE5=Howlin' Wolf - Little Red Rooster
TTITLE6=Howlin' Wolf - Back Door Man
TTITLE7=Little Walter - Dead Presidents
TTITLE8=Howlin' Wolf - Hidden Charms
TTITLE9=Muddy Waters - You Shook Me
TTITLE10=Sonny Boy Williamson - Bring It On Home
TTITLE11=Howlin' Wolf - 300 Pounds Of Joy
TTITLE12=WillieDixon,AKAWilliamJamesDixon,Vicksburg,MS,thenChicago,IL - Weak Brain, Narrow Mind
TTITLE13=Koko Taylor - Wang Dang Doodle
TTITLE14=Muddy Waters - The Same Thing
TTITLE15=Howlin' Wolf - Built For Comfort
TTITLE16=Little Milton - I Can't Quit You Baby
TTITLE17=Koko Taylor - Insane Asylum
EXTD=
EXTT0=
EXTT1=
EXTT2=
EXTT3=
EXTT4=
EXTT5=
EXTT6=
EXTT7=
EXTT8=
EXTT9=
EXTT10=
EXTT11=
EXTT12=
EXTT13=
EXTT14=
EXTT15=
EXTT16=
EXTT17=
PLAYORDER=
